<svg id="Layer_1" enable-background="new 0 0 511.333 511.333" height="512" viewBox="0 0 511.333 511.333" width="512" xmlns="http://www.w3.org/2000/svg"><path d="m490.332 330.328h-245.326l-.01 117.34-224-192 224-192 .01 117.34h245.326z" fill="#fff3e4"/><path d="m244.999 181.008h245.333v149.327h-245.333z" fill="#ffebd2"/><path d="m490.333 160.008h-224.329l-.008-96.342c-.002-17.911-21.073-27.594-34.667-15.942l-224 192c-9.771 8.374-9.773 23.512 0 31.889l224 192c13.558 11.621 34.665 2.024 34.667-15.942l.008-96.342h224.329c11.598 0 21-9.402 21-21v-149.32c0-11.599-9.403-21.001-21-21.001zm-21 149.32h-224.327c-11.598 0-20.999 9.401-21 20.998l-.006 71.687-170.736-146.345 170.736-146.345c.007 86.025.007 59.155-.001 125.002-.002 11.599 9.399 21.001 20.997 21.003 11.55 0 21.001-9.352 21.003-20.997l.004-32.323h203.33z"/></svg>